<?xml version="1.0" encoding="UTF-8"?>
<svg width="48px" height="48px" viewBox="0 0 48 48" version="1.1" xmlns="http://www.w3.org/2000/svg" xmlns:xlink="http://www.w3.org/1999/xlink">
    <!-- Generator: Sketch 55.2 (78181) - https://sketchapp.com -->
    <title>facebook-circle</title>
    <desc>Created with Sketch.</desc>
    <g id="home_site" stroke="none" stroke-width="1" fill="none" fill-rule="evenodd">
        <g id="preview-02" transform="translate(-1306.000000, -4322.000000)" fill="#00DDD2" fill-rule="nonzero">
            <g id="facebook-circle" transform="translate(1306.000000, 4322.000000)">
                <path d="M24,0 C10.7664545,0 0,10.7664545 0,24 C0,37.2325787 10.7664545,48 24,48 C37.2325787,48 48,37.2325787 48,24 C48,10.7664545 37.2345122,0 24,0 Z M29.9685813,24.8449206 L26.0639652,24.8449206 C26.0639652,31.0832192 26.0639652,38.7619431 26.0639652,38.7619431 L20.2780955,38.7619431 C20.2780955,38.7619431 20.2780955,31.1576573 20.2780955,24.8449206 L17.5277532,24.8449206 L17.5277532,19.9262064 L20.2780955,19.9262064 L20.2780955,16.7447031 C20.2780955,14.4661242 21.3608314,10.9056634 26.1171353,10.9056634 L30.4045758,10.9220978 L30.4045758,15.6967695 C30.4045758,15.6967695 27.7992427,15.6967695 27.292677,15.6967695 C26.7861113,15.6967695 26.0658987,15.9500524 26.0658987,17.0366551 L26.0658987,19.9271731 L30.4741803,19.9271731 L29.9685813,24.8449206 Z" id="Shape"></path>
            </g>
        </g>
    </g>
</svg>