<?xml version="1.0" encoding="UTF-8"?>
<svg width="48px" height="48px" viewBox="0 0 48 48" version="1.1" xmlns="http://www.w3.org/2000/svg" xmlns:xlink="http://www.w3.org/1999/xlink">
    <!-- Generator: Sketch 55.2 (78181) - https://sketchapp.com -->
    <title>instagram-circle</title>
    <desc>Created with Sketch.</desc>
    <g id="home_site" stroke="none" stroke-width="1" fill="none" fill-rule="evenodd">
        <g id="preview-02" transform="translate(-1449.000000, -4322.000000)" fill="#00DDD2" fill-rule="nonzero">
            <g id="instagram-circle" transform="translate(1449.000000, 4322.000000)">
                <g id="instagram">
                    <path d="M28.59375,24 C28.59375,26.5371094 26.5371094,28.59375 24,28.59375 C21.4628906,28.59375 19.40625,26.5371094 19.40625,24 C19.40625,21.4628906 21.4628906,19.40625 24,19.40625 C26.5371094,19.40625 28.59375,21.4628906 28.59375,24 Z" id="Path"></path>
                    <path d="M34.7431641,15.8723145 C34.5223388,15.2739258 34.170044,14.7322998 33.7122802,14.2877197 C33.2677002,13.829956 32.7264404,13.4776612 32.1276855,13.2568359 C31.6420898,13.0682373 30.9125977,12.84375 29.5689697,12.7825927 C28.1154786,12.7163086 27.6796875,12.7020263 24,12.7020263 C20.3199463,12.7020263 19.8841553,12.7159424 18.4310303,12.7822266 C17.0874023,12.84375 16.357544,13.0682373 15.8723145,13.2568359 C15.2735596,13.4776612 14.7319336,13.829956 14.2877198,14.2877197 C13.829956,14.7322998 13.4776612,15.2735596 13.2564698,15.8723145 C13.0678711,16.3579102 12.8433838,17.0877685 12.7822266,18.4313964 C12.7159424,19.8845214 12.7016602,20.3203125 12.7016602,24.0003662 C12.7016602,27.6800537 12.7159424,28.1158448 12.7822266,29.5693359 C12.8433838,30.9129638 13.0678711,31.642456 13.2564698,32.1280518 C13.4776612,32.7268067 13.8295898,33.2680664 14.2873536,33.7126464 C14.7319336,34.1704102 15.2731933,34.5227051 15.8719482,34.7435302 C16.357544,34.9324951 17.0874023,35.1569824 18.4310303,35.2181396 C19.8841553,35.2844239 20.3195801,35.2983398 23.9996338,35.2983398 C27.6800537,35.2983398 28.1158448,35.2844239 29.5686036,35.2181396 C30.9122315,35.1569824 31.6420898,34.9324951 32.1276855,34.7435302 C33.3295898,34.2799072 34.2795411,33.329956 34.7431641,32.1280518 C34.9317627,31.642456 35.15625,30.9129638 35.2177734,29.5693359 C35.2840576,28.1158447 35.2979737,27.6800537 35.2979737,24.0003662 C35.2979737,20.3203125 35.2840576,19.8845214 35.2177734,18.4313964 C35.1566162,17.0877685 34.9321289,16.3579102 34.7431641,15.8723145 L34.7431641,15.8723145 Z M24,31.0766602 C20.0914307,31.0766602 16.9229737,27.9085693 16.9229737,24 C16.9229737,20.0914307 20.0914307,16.9233398 24,16.9233398 C27.9082031,16.9233398 31.0766602,20.0914307 31.0766602,24 C31.0766602,27.9085693 27.9082031,31.0766602 24,31.0766602 Z M31.3564453,18.2973633 C30.4431152,18.2973633 29.7026367,17.5568848 29.7026367,16.6435547 C29.7026367,15.7302246 30.4431152,14.9897461 31.3564453,14.9897461 C32.2697754,14.9897461 33.0102539,15.7302246 33.0102539,16.6435547 C33.0098877,17.5568848 32.2697754,18.2973633 31.3564453,18.2973633 Z" id="Shape"></path>
                    <path d="M24,0 C10.7471924,0 0,10.7471924 0,24 C0,37.2528076 10.7471924,48 24,48 C37.2528076,48 48,37.2528076 48,24 C48,10.7471924 37.2528076,0 24,0 Z M37.6981201,29.6817627 C37.6314698,31.1488037 37.3981933,32.1503906 37.0576172,33.0270996 C36.3416748,34.8782959 34.8782959,36.3416748 33.0270996,37.0576172 C32.1507568,37.3981933 31.1488037,37.6311036 29.6821289,37.6981201 C28.2125244,37.7651367 27.743042,37.78125 24.0003662,37.78125 C20.2573242,37.78125 19.788208,37.7651367 18.3182373,37.6981201 C16.8515625,37.6311036 15.8496094,37.3981933 14.9732666,37.0576172 C14.0533448,36.7115479 13.220581,36.1691895 12.5321045,35.4678955 C11.8311768,34.7797852 11.2888183,33.9466553 10.942749,33.0270996 C10.6021729,32.1507568 10.3688964,31.1488037 10.3022461,29.6821289 C10.2344971,28.2121583 10.21875,27.7426758 10.21875,24 C10.21875,20.2573242 10.2344971,19.7878418 10.3018799,18.3182373 C10.3685303,16.8511963 10.6014404,15.8496094 10.9420166,14.9729004 C11.2880859,14.0533448 11.8308105,13.2202148 12.5321045,12.5321045 C13.2202148,11.8308105 14.0533448,11.2884521 14.9729004,10.9423828 C15.8496094,10.6018067 16.8511963,10.3688964 18.3182373,10.3018799 C19.7878418,10.2348633 20.2573242,10.21875 24,10.21875 C27.7426758,10.21875 28.2121583,10.2348633 29.6817627,10.3022461 C31.1488037,10.3688964 32.1503906,10.6018067 33.0270996,10.9420166 C33.9466552,11.2880859 34.7797852,11.8308105 35.4682617,12.5321045 C36.1691895,13.220581 36.7119141,14.0533448 37.0576172,14.9729004 C37.3985596,15.8496094 37.6314698,16.8511963 37.6984864,18.3182373 C37.7655029,19.7878418 37.78125,20.2573242 37.78125,24 C37.78125,27.7426758 37.7655029,28.2121583 37.6981201,29.6817627 L37.6981201,29.6817627 Z" id="Shape"></path>
                </g>
            </g>
        </g>
    </g>
</svg>