<svg xmlns="http://www.w3.org/2000/svg" xmlns:xlink="http://www.w3.org/1999/xlink" width="50" zoomAndPan="magnify" viewBox="0 0 37.5 37.499999" height="50" preserveAspectRatio="xMidYMid meet" version="1.0"><defs><clipPath id="059048ecc4"><path d="M 3.246094 4 L 33.996094 4 L 33.996094 33.75 L 3.246094 33.75 Z M 3.246094 4 " clip-rule="nonzero"/></clipPath><clipPath id="3ee8dbfd16"><path d="M 3.246094 18.75 C 3.246094 27.035156 9.960938 33.75 18.246094 33.75 L 19.253906 33.75 C 27.539062 33.75 34.253906 27.035156 34.253906 18.75 C 34.253906 10.464844 27.539062 3.75 19.253906 3.75 L 18.246094 3.75 C 9.960938 3.75 3.246094 10.464844 3.246094 18.75 Z M 3.246094 18.75 " clip-rule="nonzero"/></clipPath></defs><g clip-path="url(#059048ecc4)"><g clip-path="url(#3ee8dbfd16)"><path fill="#000000" d="M 22.785156 18.902344 L 32.492188 9.117188 C 33.640625 7.957031 33.640625 6.078125 32.492188 4.917969 C 31.339844 3.757812 29.476562 3.757812 28.324219 4.917969 L 18.617188 14.703125 L 8.910156 4.917969 C 7.757812 3.757812 5.894531 3.757812 4.742188 4.917969 C 3.59375 6.078125 3.59375 7.957031 4.742188 9.117188 L 14.449219 18.902344 L 4.71875 28.710938 C 3.566406 29.871094 3.566406 31.753906 4.71875 32.910156 C 5.292969 33.492188 6.046875 33.78125 6.800781 33.78125 C 7.554688 33.78125 8.3125 33.492188 8.886719 32.910156 L 18.617188 23.101562 L 28.324219 32.886719 C 28.898438 33.46875 29.652344 33.757812 30.40625 33.757812 C 31.160156 33.757812 31.914062 33.46875 32.488281 32.886719 C 33.640625 31.726562 33.640625 29.847656 32.488281 28.6875 Z M 22.785156 18.902344 " fill-opacity="1" fill-rule="nonzero"/></g></g></svg>