<svg xmlns="http://www.w3.org/2000/svg" xmlns:xlink="http://www.w3.org/1999/xlink" width="50" zoomAndPan="magnify" viewBox="0 0 37.5 37.499999" height="50" preserveAspectRatio="xMidYMid meet" version="1.0"><path fill="#000000" d="M 3.75 8.75 C 3.582031 8.746094 3.421875 8.777344 3.265625 8.839844 C 3.109375 8.902344 2.972656 8.992188 2.855469 9.109375 C 2.734375 9.226562 2.644531 9.363281 2.578125 9.515625 C 2.515625 9.671875 2.480469 9.832031 2.480469 10 C 2.480469 10.167969 2.515625 10.328125 2.578125 10.484375 C 2.644531 10.636719 2.734375 10.773438 2.855469 10.890625 C 2.972656 11.007812 3.109375 11.097656 3.265625 11.160156 C 3.421875 11.222656 3.582031 11.253906 3.75 11.25 L 33.75 11.25 C 33.917969 11.253906 34.078125 11.222656 34.234375 11.160156 C 34.390625 11.097656 34.527344 11.007812 34.644531 10.890625 C 34.765625 10.773438 34.855469 10.636719 34.921875 10.484375 C 34.984375 10.328125 35.019531 10.167969 35.019531 10 C 35.019531 9.832031 34.984375 9.671875 34.921875 9.515625 C 34.855469 9.363281 34.765625 9.226562 34.644531 9.109375 C 34.527344 8.992188 34.390625 8.902344 34.234375 8.839844 C 34.078125 8.777344 33.917969 8.746094 33.75 8.75 Z M 3.75 17.5 C 3.582031 17.496094 3.421875 17.527344 3.265625 17.589844 C 3.109375 17.652344 2.972656 17.742188 2.855469 17.859375 C 2.734375 17.976562 2.644531 18.113281 2.578125 18.265625 C 2.515625 18.421875 2.480469 18.582031 2.480469 18.75 C 2.480469 18.917969 2.515625 19.078125 2.578125 19.234375 C 2.644531 19.386719 2.734375 19.523438 2.855469 19.640625 C 2.972656 19.757812 3.109375 19.847656 3.265625 19.910156 C 3.421875 19.972656 3.582031 20.003906 3.75 20 L 33.75 20 C 33.917969 20.003906 34.078125 19.972656 34.234375 19.910156 C 34.390625 19.847656 34.527344 19.757812 34.644531 19.640625 C 34.765625 19.523438 34.855469 19.386719 34.921875 19.234375 C 34.984375 19.078125 35.019531 18.917969 35.019531 18.75 C 35.019531 18.582031 34.984375 18.421875 34.921875 18.265625 C 34.855469 18.113281 34.765625 17.976562 34.644531 17.859375 C 34.527344 17.742188 34.390625 17.652344 34.234375 17.589844 C 34.078125 17.527344 33.917969 17.496094 33.75 17.5 Z M 3.75 26.25 C 3.582031 26.246094 3.421875 26.277344 3.265625 26.339844 C 3.109375 26.402344 2.972656 26.492188 2.855469 26.609375 C 2.734375 26.726562 2.644531 26.863281 2.578125 27.015625 C 2.515625 27.171875 2.480469 27.332031 2.480469 27.5 C 2.480469 27.667969 2.515625 27.828125 2.578125 27.984375 C 2.644531 28.136719 2.734375 28.273438 2.855469 28.390625 C 2.972656 28.507812 3.109375 28.597656 3.265625 28.660156 C 3.421875 28.722656 3.582031 28.753906 3.75 28.75 L 33.75 28.75 C 33.917969 28.753906 34.078125 28.722656 34.234375 28.660156 C 34.390625 28.597656 34.527344 28.507812 34.644531 28.390625 C 34.765625 28.273438 34.855469 28.136719 34.921875 27.984375 C 34.984375 27.828125 35.019531 27.667969 35.019531 27.5 C 35.019531 27.332031 34.984375 27.171875 34.921875 27.015625 C 34.855469 26.863281 34.765625 26.726562 34.644531 26.609375 C 34.527344 26.492188 34.390625 26.402344 34.234375 26.339844 C 34.078125 26.277344 33.917969 26.246094 33.75 26.25 Z M 3.75 26.25 " fill-opacity="1" fill-rule="nonzero"/></svg>