<?xml version="1.0" encoding="UTF-8"?>
<svg width="48px" height="48px" viewBox="0 0 48 48" version="1.1" xmlns="http://www.w3.org/2000/svg" xmlns:xlink="http://www.w3.org/1999/xlink">
    <!-- Generator: Sketch 55.2 (78181) - https://sketchapp.com -->
    <title>youtube-circle</title>
    <desc>Created with Sketch.</desc>
    <g id="home_site" stroke="none" stroke-width="1" fill="none" fill-rule="evenodd">
        <g id="preview-02" transform="translate(-1520.000000, -4322.000000)" fill="#00DDD2" fill-rule="nonzero">
            <g id="youtube-circle" transform="translate(1520.000000, 4322.000000)">
                <g id="youtube">
                    <polygon id="Path" points="21.0106201 28.4963379 28.8175049 24 21.0106201 19.5036621"></polygon>
                    <path d="M24,0 C10.7471924,0 0,10.7471924 0,24 C0,37.2528076 10.7471924,48 24,48 C37.2528076,48 48,37.2528076 48,24 C48,10.7471924 37.2528076,0 24,0 Z M38.9964669,24.0245362 C38.9964669,24.0245362 38.9964669,28.8918458 38.3789062,31.2388916 C38.0328369,32.5235596 37.0198974,33.536499 35.7352295,33.8822021 C33.3881836,34.5 24,34.5 24,34.5 C24,34.5 14.6363526,34.5 12.2647705,33.8576661 C10.9801026,33.5119629 9.96716306,32.4986573 9.62109375,31.2139893 C9.00329588,28.8918458 9.00329588,24 9.00329588,24 C9.00329588,24 9.00329588,19.1330567 9.62109375,16.7860107 C9.96679688,15.5013428 11.0046386,14.463501 12.2647705,14.1177979 C14.6118164,13.5 24,13.5 24,13.5 C24,13.5 33.3881836,13.5 35.7352295,14.1423339 C37.0198974,14.4880371 38.0328369,15.5013428 38.3789062,16.7860107 C39.0212402,19.1330567 38.9964669,24.0245362 38.9964669,24.0245362 L38.9964669,24.0245362 Z" id="Shape"></path>
                </g>
            </g>
        </g>
    </g>
</svg>